<svg width="99" height="97" viewBox="0 0 99 97" fill="none" xmlns="http://www.w3.org/2000/svg">
<g filter="url(#filter0_d)">
<path d="M85.9925 0H55.2926C47.123 0 43 3.99968 43 11.9219V54.3221C43 55.3606 43.553 56 44.7445 56H54.0246C55.1352 56 55.8501 55.3606 55.8501 54.3221V52.7123C55.8501 48.7852 57.4912 46.6448 61.5692 46.2321H85.9925C94.9534 46.2321 99 42.314 99 33.7524V12.4797C99 3.91805 94.9534 0 85.9925 0ZM86.1634 30.1518C86.1634 34.7954 85.1203 35.7522 79.6439 35.7522H66.6364C61.1646 35.7522 57.6711 37.5933 55.8456 41.1939V15.0419C55.8456 11.4412 56.7179 10.4799 61.0792 10.4799H79.6439C85.1203 10.4799 86.1634 11.4412 86.1634 16.0803V30.1518Z" fill="white"/>
<path d="M13.0075 95L43.7074 95C51.877 95 56 91.0003 56 83.0781L56 40.6779C56 39.6394 55.447 39 54.2555 39L44.9754 39C43.8648 39 43.1499 39.6394 43.1499 40.6779L43.1499 42.2877C43.1499 46.2148 41.5088 48.3553 37.4308 48.7679L13.0075 48.7679C4.04657 48.7679 -1.15488e-07 52.686 -8.63972e-07 61.2476L-2.72369e-06 82.5203C-3.47217e-06 91.0819 4.04657 95 13.0075 95ZM12.8366 64.8482C12.8366 60.2046 13.8797 59.2478 19.3561 59.2478L32.3636 59.2478C37.8354 59.2478 41.3289 57.4067 43.1544 53.8061L43.1544 79.9581C43.1544 83.5588 42.2821 84.5201 37.9208 84.5201L19.3561 84.5201C13.8797 84.5201 12.8366 83.5587 12.8366 78.9197L12.8366 64.8482Z" fill="white"/>
</g>
<defs>
<filter id="filter0_d" x="0" y="0" width="99" height="97" filterUnits="userSpaceOnUse" color-interpolation-filters="sRGB">
<feFlood flood-opacity="0" result="BackgroundImageFix"/>
<feColorMatrix in="SourceAlpha" type="matrix" values="0 0 0 0 0 0 0 0 0 0 0 0 0 0 0 0 0 0 127 0" result="hardAlpha"/>
<feOffset dy="2"/>
<feComposite in2="hardAlpha" operator="out"/>
<feColorMatrix type="matrix" values="0 0 0 0 0 0 0 0 0 0 0 0 0 0 0 0 0 0 0.25 0"/>
<feBlend mode="normal" in2="BackgroundImageFix" result="effect1_dropShadow"/>
<feBlend mode="normal" in="SourceGraphic" in2="effect1_dropShadow" result="shape"/>
</filter>
</defs>
</svg>
