<svg width="179" height="63" viewBox="0 0 179 63" fill="none" xmlns="http://www.w3.org/2000/svg">
<g filter="url(#filter0_d)">
<path d="M171.701 7.83487H154.474C149.89 7.83487 147.577 10.0732 147.577 14.5068V38.2353C147.577 38.8165 147.887 39.1743 148.556 39.1743H153.763C154.386 39.1743 154.787 38.8165 154.787 38.2353V37.3344C154.787 35.1367 155.708 33.9388 157.996 33.7079H171.701C176.729 33.7079 179 31.5152 179 26.7238V14.8189C179 10.0275 176.729 7.83487 171.701 7.83487ZM171.797 24.7088C171.797 27.3075 171.212 27.843 168.139 27.843H160.84C157.769 27.843 155.809 28.8733 154.785 30.8884V16.2528C154.785 14.2378 155.274 13.6998 157.721 13.6998H168.139C171.212 13.6998 171.797 14.2378 171.797 16.834V24.7088Z" fill="white"/>
<path d="M130.747 61L147.974 61C152.558 61 154.871 58.7616 154.871 54.3281L154.871 30.5995C154.871 30.0184 154.561 29.6606 153.892 29.6606L148.685 29.6605C148.062 29.6605 147.661 30.0184 147.661 30.5995L147.661 31.5005C147.661 33.6982 146.74 34.8961 144.452 35.127L130.747 35.127C125.719 35.127 123.448 37.3197 123.448 42.1111L123.448 54.0159C123.448 58.8073 125.719 61 130.747 61ZM130.651 44.1261C130.651 41.5274 131.236 40.9919 134.309 40.9919L141.608 40.9919C144.679 40.9919 146.639 39.9615 147.663 37.9465L147.663 52.5821C147.663 54.5971 147.174 55.1351 144.727 55.1351L134.309 55.1351C131.236 55.1351 130.651 54.5971 130.651 52.0009L130.651 44.1261Z" fill="white"/>
</g>
<g filter="url(#filter1_d)">
<path d="M12.6583 26.634C12.6583 25.8142 12.346 25.1802 11.7213 24.7321C11.1075 24.273 10.028 23.8795 8.48272 23.5516C6.94838 23.2237 5.72639 22.8302 4.81675 22.3711C3.91807 21.912 3.24954 21.3655 2.81116 20.7316C2.38373 20.0976 2.17002 19.3434 2.17002 18.469C2.17002 17.0153 2.78376 15.7856 4.01122 14.78C5.24965 13.7744 6.82783 13.2716 8.74575 13.2716C10.7623 13.2716 12.3953 13.7908 13.6447 14.8292C14.905 15.8676 15.5352 17.1956 15.5352 18.8133H12.4775C12.4775 17.9826 12.1213 17.2667 11.4089 16.6655C10.7075 16.0643 9.81978 15.7637 8.74575 15.7637C7.63883 15.7637 6.77303 16.0042 6.14834 16.4851C5.52364 16.9661 5.21129 17.5946 5.21129 18.3706C5.21129 19.103 5.50172 19.6549 6.08258 20.0266C6.66343 20.3982 7.71007 20.7534 9.22249 21.0923C10.7459 21.4311 11.9788 21.8355 12.9213 22.3055C13.8639 22.7755 14.5598 23.3439 15.0091 24.0107C15.4694 24.6665 15.6996 25.4699 15.6996 26.4208C15.6996 28.0057 15.0639 29.2791 13.7926 30.241C12.5213 31.1919 10.8719 31.6674 8.84438 31.6674C7.41964 31.6674 6.1593 31.416 5.06334 30.9132C3.96739 30.4104 3.10706 29.7108 2.48237 28.8146C1.86863 27.9073 1.56177 26.9291 1.56177 25.8798H4.60304C4.65784 26.8963 5.06334 27.7051 5.81955 28.3063C6.58672 28.8965 7.59499 29.1917 8.84438 29.1917C9.99513 29.1917 10.9157 28.9621 11.6062 28.503C12.3076 28.033 12.6583 27.41 12.6583 26.634Z" fill="black"/>
<path d="M22.7027 15.7473C24.0507 14.0969 25.8043 13.2716 27.9633 13.2716C31.7224 13.2716 33.6184 15.3866 33.6513 19.6167V31.3395H30.61V19.6003C30.5991 18.3214 30.3032 17.376 29.7223 16.7639C29.1524 16.1518 28.2592 15.8457 27.0427 15.8457C26.0563 15.8457 25.1905 16.108 24.4453 16.6327C23.7 17.1574 23.1192 17.846 22.7027 18.6985V31.3395H19.6614V6.15598H22.7027V15.7473Z" fill="black"/>
<path d="M37.3995 22.3055C37.3995 20.5676 37.7392 19.0046 38.4187 17.6164C39.1092 16.2283 40.0626 15.1571 41.2791 14.4029C42.5066 13.6487 43.904 13.2716 45.4712 13.2716C47.8932 13.2716 49.8495 14.1078 51.34 15.7801C52.8415 17.4525 53.5922 19.6768 53.5922 22.4531V22.6662C53.5922 24.3932 53.2579 25.9453 52.5894 27.3226C51.9318 28.6889 50.9838 29.7546 49.7454 30.5197C48.5179 31.2848 47.1041 31.6674 45.504 31.6674C43.0929 31.6674 41.1367 30.8312 39.6352 29.1589C38.1447 27.4865 37.3995 25.2731 37.3995 22.5187V22.3055ZM40.4572 22.6662C40.4572 24.6337 40.912 26.2131 41.8216 27.4045C42.7422 28.5959 43.9697 29.1917 45.504 29.1917C47.0493 29.1917 48.2768 28.5905 49.1865 27.3881C50.0961 26.1749 50.5509 24.4807 50.5509 22.3055C50.5509 20.3599 50.0851 18.786 49.1536 17.5836C48.233 16.3704 47.0055 15.7637 45.4712 15.7637C43.9697 15.7637 42.7587 16.3594 41.8381 17.5508C40.9175 18.7423 40.4572 20.4474 40.4572 22.6662Z" fill="black"/>
<path d="M66.0039 16.3212C65.5436 16.2447 65.0449 16.2064 64.5079 16.2064C62.5133 16.2064 61.1598 17.0535 60.4474 18.7477V31.3395H57.4061V13.5995H60.3652L60.4145 15.649C61.4118 14.0641 62.8256 13.2716 64.6558 13.2716C65.2477 13.2716 65.697 13.3481 66.0039 13.5012V16.3212Z" fill="black"/>
<path d="M73.7632 9.30391V13.5995H77.084V15.9441H73.7632V26.9455C73.7632 27.6559 73.9112 28.1915 74.2071 28.5522C74.503 28.902 75.0071 29.0769 75.7195 29.0769C76.0702 29.0769 76.5524 29.0113 77.1662 28.8801V31.3395C76.3661 31.5581 75.588 31.6674 74.8318 31.6674C73.4728 31.6674 72.4481 31.2575 71.7576 30.4377C71.0672 29.6179 70.722 28.4539 70.722 26.9455V15.9441H67.4834V13.5995H70.722V9.30391H73.7632Z" fill="black"/>
<path d="M88.0325 31.6674C85.6214 31.6674 83.6597 30.8804 82.1473 29.3064C80.6349 27.7215 79.8786 25.6065 79.8786 22.9614V22.4039C79.8786 20.6441 80.2129 19.0756 80.8814 17.6984C81.5609 16.3103 82.5035 15.2282 83.709 14.4521C84.9255 13.6651 86.2407 13.2716 87.6544 13.2716C89.9669 13.2716 91.7643 14.0313 93.0465 15.5506C94.3288 17.0699 94.9699 19.245 94.9699 22.076V23.3385H82.9199C82.9638 25.0873 83.4734 26.5028 84.4488 27.5849C85.4351 28.6561 86.6845 29.1917 88.1969 29.1917C89.271 29.1917 90.1806 28.973 90.9259 28.5358C91.6711 28.0986 92.3232 27.5193 92.8821 26.7979L94.7398 28.2407C93.2493 30.5252 91.0135 31.6674 88.0325 31.6674ZM87.6544 15.7637C86.427 15.7637 85.3968 16.2119 84.5639 17.1082C83.7309 17.9935 83.2158 19.2396 83.0186 20.8463H91.9287V20.6168C91.841 19.0756 91.4245 17.8842 90.6793 17.0426C89.934 16.19 88.9257 15.7637 87.6544 15.7637Z" fill="black"/>
<path d="M101.381 13.5995L101.48 15.8293C102.839 14.1242 104.614 13.2716 106.806 13.2716C110.565 13.2716 112.461 15.3866 112.494 19.6167V31.3395H109.453V19.6003C109.442 18.3214 109.146 17.376 108.565 16.7639C107.995 16.1518 107.102 15.8457 105.886 15.8457C104.899 15.8457 104.033 16.108 103.288 16.6327C102.543 17.1574 101.962 17.846 101.546 18.6985V31.3395H98.5044V13.5995H101.381Z" fill="black"/>
<path d="M124.462 31.6674C122.051 31.6674 120.089 30.8804 118.577 29.3064C117.064 27.7215 116.308 25.6065 116.308 22.9614V22.4039C116.308 20.6441 116.642 19.0756 117.311 17.6984C117.99 16.3103 118.933 15.2282 120.139 14.4521C121.355 13.6651 122.67 13.2716 124.084 13.2716C126.396 13.2716 128.194 14.0313 129.476 15.5506C130.758 17.0699 131.399 19.245 131.399 22.076V23.3385H119.349C119.393 25.0873 119.903 26.5028 120.878 27.5849C121.865 28.6561 123.114 29.1917 124.626 29.1917C125.7 29.1917 126.61 28.973 127.355 28.5358C128.101 28.0986 128.753 27.5193 129.312 26.7979L131.169 28.2407C129.679 30.5252 127.443 31.6674 124.462 31.6674ZM124.084 15.7637C122.856 15.7637 121.826 16.2119 120.993 17.1082C120.16 17.9935 119.645 19.2396 119.448 20.8463H128.358V20.6168C128.271 19.0756 127.854 17.8842 127.109 17.0426C126.364 16.19 125.355 15.7637 124.084 15.7637Z" fill="black"/>
<path d="M143.532 16.3212C143.071 16.2447 142.573 16.2064 142.036 16.2064C140.041 16.2064 138.688 17.0535 137.975 18.7477V31.3395H134.934V13.5995H137.893L137.942 15.649C138.94 14.0641 140.353 13.2716 142.184 13.2716C142.775 13.2716 143.225 13.3481 143.532 13.5012V16.3212Z" fill="black"/>
</g>
<g filter="url(#filter2_f)">
<path d="M22.9515 46.5807C21.9871 46.5807 21.2024 46.2659 20.5974 45.6363C19.9924 45.0024 19.6899 44.1564 19.6899 43.0983V42.8753C19.6899 42.1714 19.8236 41.544 20.0911 40.9931C20.3629 40.4379 20.7399 40.005 21.2221 39.6946C21.7087 39.3798 22.2347 39.2224 22.8003 39.2224C23.7252 39.2224 24.4442 39.5263 24.9571 40.134C25.47 40.7417 25.7265 41.6118 25.7265 42.7442V43.2492H20.9065C20.924 43.9487 21.1278 44.5149 21.518 44.9477C21.9125 45.3762 22.4123 45.5904 23.0173 45.5904C23.4469 45.5904 23.8107 45.503 24.1088 45.3281C24.4069 45.1532 24.6678 44.9215 24.8913 44.6329L25.6344 45.2101C25.0382 46.1238 24.1439 46.5807 22.9515 46.5807ZM22.8003 40.2193C22.3093 40.2193 21.8972 40.3985 21.564 40.757C21.2309 41.1112 21.0248 41.6096 20.9459 42.2523H24.5099V42.1605C24.4749 41.544 24.3083 41.0675 24.0102 40.7308C23.7121 40.3898 23.3088 40.2193 22.8003 40.2193Z" fill="black"/>
<path d="M28.291 39.3536L28.3304 40.2455C28.874 39.5634 29.5842 39.2224 30.461 39.2224C31.9646 39.2224 32.723 40.0684 32.7362 41.7604V46.4496H31.5197V41.7539C31.5153 41.2423 31.3969 40.8642 31.1646 40.6193C30.9366 40.3745 30.5793 40.2521 30.0927 40.2521C29.6982 40.2521 29.3519 40.357 29.0538 40.5668C28.7557 40.7767 28.5233 41.0522 28.3567 41.3932V46.4496H27.1402V39.3536H28.291Z" fill="black"/>
<path d="M37.4247 45.5904C37.8587 45.5904 38.2379 45.4593 38.5623 45.1969C38.8867 44.9346 39.0664 44.6067 39.1015 44.2132H40.2522C40.2303 44.6198 40.09 45.0067 39.8314 45.374C39.5727 45.7413 39.2264 46.0342 38.7924 46.2528C38.3628 46.4714 37.9069 46.5807 37.4247 46.5807C36.4558 46.5807 35.6843 46.2594 35.11 45.6167C34.5401 44.9696 34.2552 44.0864 34.2552 42.9671V42.7638C34.2552 42.073 34.3823 41.4588 34.6366 40.921C34.8908 40.3832 35.2547 39.9657 35.7281 39.6684C36.206 39.3711 36.7693 39.2224 37.4181 39.2224C38.216 39.2224 38.8779 39.4607 39.404 39.9373C39.9344 40.4138 40.2172 41.0325 40.2522 41.7932H39.1015C39.0664 41.3342 38.8911 40.9582 38.5754 40.6652C38.2642 40.3679 37.8784 40.2193 37.4181 40.2193C36.8 40.2193 36.32 40.4422 35.978 40.8882C35.6405 41.3298 35.4717 41.9703 35.4717 42.8098V43.0393C35.4717 43.8569 35.6405 44.4865 35.978 44.928C36.3156 45.3696 36.7978 45.5904 37.4247 45.5904Z" fill="black"/>
<path d="M46.0126 45.7478C45.5391 46.3031 44.8443 46.5807 43.9281 46.5807C43.1697 46.5807 42.591 46.3621 42.1921 45.9249C41.7975 45.4833 41.5981 44.8319 41.5937 43.9706V39.3536H42.8102V43.9378C42.8102 45.0133 43.2486 45.5511 44.1253 45.5511C45.0547 45.5511 45.6728 45.2057 45.9797 44.5149V39.3536H47.1962V46.4496H46.0389L46.0126 45.7478Z" fill="black"/>
<path d="M52.4897 40.4422C52.3055 40.4116 52.1061 40.3963 51.8913 40.3963C51.0934 40.3963 50.552 40.7352 50.2671 41.4129V46.4496H49.0506V39.3536H50.2342L50.2539 40.1734C50.6528 39.5394 51.2184 39.2224 51.9504 39.2224C52.1872 39.2224 52.3669 39.253 52.4897 39.3142V40.4422Z" fill="black"/>
<path d="M55.5934 37.6353V39.3536H56.9217V40.2914H55.5934V44.692C55.5934 44.9761 55.6526 45.1904 55.7709 45.3347C55.8893 45.4746 56.091 45.5445 56.3759 45.5445C56.5162 45.5445 56.7091 45.5183 56.9546 45.4658V46.4496C56.6346 46.537 56.3233 46.5807 56.0208 46.5807C55.4772 46.5807 55.0673 46.4168 54.7912 46.0888C54.515 45.7609 54.3769 45.2953 54.3769 44.692V40.2914H53.0815V39.3536H54.3769V37.6353H55.5934Z" fill="black"/>
<path d="M62.7412 46.4496C62.6711 46.3096 62.6141 46.0604 62.5702 45.7019C62.0047 46.2878 61.3296 46.5807 60.5449 46.5807C59.8435 46.5807 59.267 46.384 58.8155 45.9905C58.3684 45.5926 58.1448 45.0898 58.1448 44.4821C58.1448 43.7432 58.4253 43.1705 58.9865 42.7638C59.552 42.3529 60.3455 42.1474 61.3669 42.1474H62.5505V41.5899C62.5505 41.1658 62.4234 40.8292 62.1691 40.58C61.9149 40.3264 61.54 40.1996 61.0447 40.1996C60.6107 40.1996 60.2468 40.3089 59.9531 40.5275C59.6594 40.7461 59.5125 41.0106 59.5125 41.321H58.2894C58.2894 40.9669 58.4144 40.6259 58.6643 40.298C58.9185 39.9657 59.2605 39.7034 59.6901 39.511C60.1241 39.3186 60.5997 39.2224 61.117 39.2224C61.9368 39.2224 62.579 39.4279 63.0437 39.8389C63.5084 40.2455 63.7495 40.8073 63.767 41.5243V44.7903C63.767 45.4418 63.8503 45.9599 64.0169 46.3446V46.4496H62.7412ZM60.7225 45.5248C61.1039 45.5248 61.4655 45.4265 61.8075 45.2297C62.1494 45.033 62.3971 44.7772 62.5505 44.4624V43.0065H61.597C60.1065 43.0065 59.3613 43.4415 59.3613 44.3116C59.3613 44.692 59.4884 44.9893 59.7427 45.2035C59.9969 45.4177 60.3235 45.5248 60.7225 45.5248Z" fill="black"/>
<path d="M65.3781 42.8425C65.3781 41.7539 65.6367 40.8795 66.154 40.2193C66.6713 39.5547 67.3486 39.2224 68.1859 39.2224C69.0188 39.2224 69.6786 39.5066 70.1652 40.075V36.3762H71.3817V46.4496H70.2638L70.2047 45.6888C69.7181 46.2834 69.0408 46.5807 68.1728 46.5807C67.3486 46.5807 66.6757 46.2441 66.154 45.5708C65.6367 44.8974 65.3781 44.0186 65.3781 42.9344V42.8425ZM66.5946 42.9803C66.5946 43.7847 66.7612 44.4143 67.0943 44.869C67.4275 45.3237 67.8878 45.5511 68.4752 45.5511C69.2468 45.5511 69.8101 45.2057 70.1652 44.5149V41.2555C69.8014 40.5865 69.2424 40.2521 68.4884 40.2521C67.8922 40.2521 67.4275 40.4816 67.0943 40.9407C66.7612 41.3997 66.5946 42.0796 66.5946 42.9803Z" fill="black"/>
<path d="M72.9533 42.836C72.9533 42.1408 73.0892 41.5156 73.361 40.9603C73.6372 40.4051 74.0186 39.9766 74.5052 39.6749C74.9962 39.3733 75.5551 39.2224 76.182 39.2224C77.1508 39.2224 77.9333 39.5569 78.5295 40.2258C79.1301 40.8948 79.4304 41.7845 79.4304 42.895V42.9803C79.4304 43.6711 79.2967 44.2919 79.0293 44.8428C78.7663 45.3893 78.3871 45.8156 77.8917 46.1216C77.4007 46.4277 76.8352 46.5807 76.1951 46.5807C75.2307 46.5807 74.4482 46.2462 73.8476 45.5773C73.2514 44.9084 72.9533 44.023 72.9533 42.9212V42.836ZM74.1764 42.9803C74.1764 43.7672 74.3583 44.399 74.7222 44.8756C75.0904 45.3521 75.5814 45.5904 76.1951 45.5904C76.8133 45.5904 77.3043 45.35 77.6681 44.869C78.032 44.3837 78.2139 43.706 78.2139 42.836C78.2139 42.0577 78.0276 41.4282 77.655 40.9472C77.2867 40.4619 76.7957 40.2193 76.182 40.2193C75.5814 40.2193 75.097 40.4575 74.7288 40.9341C74.3605 41.4107 74.1764 42.0927 74.1764 42.9803Z" fill="black"/>
<path d="M84.3951 40.4422C84.211 40.4116 84.0115 40.3963 83.7967 40.3963C82.9988 40.3963 82.4574 40.7352 82.1725 41.4129V46.4496H80.956V39.3536H82.1396L82.1593 40.1734C82.5583 39.5394 83.1238 39.2224 83.8559 39.2224C84.0926 39.2224 84.2723 39.253 84.3951 39.3142V40.4422Z" fill="black"/>
<path d="M88.5641 42.8425C88.5641 41.7539 88.8227 40.8795 89.34 40.2193C89.8573 39.5547 90.5346 39.2224 91.3719 39.2224C92.2048 39.2224 92.8646 39.5066 93.3512 40.075V36.3762H94.5677V46.4496H93.4499L93.3907 45.6888C92.9041 46.2834 92.2268 46.5807 91.3588 46.5807C90.5346 46.5807 89.8617 46.2441 89.34 45.5708C88.8227 44.8974 88.5641 44.0186 88.5641 42.9344V42.8425ZM89.7806 42.9803C89.7806 43.7847 89.9472 44.4143 90.2804 44.869C90.6135 45.3237 91.0738 45.5511 91.6613 45.5511C92.4328 45.5511 92.9961 45.2057 93.3512 44.5149V41.2555C92.9874 40.5865 92.4284 40.2521 91.6744 40.2521C91.0782 40.2521 90.6135 40.4816 90.2804 40.9407C89.9472 41.3997 89.7806 42.0796 89.7806 42.9803Z" fill="black"/>
<path d="M99.414 46.5807C98.4496 46.5807 97.6649 46.2659 97.0599 45.6363C96.455 45.0024 96.1525 44.1564 96.1525 43.0983V42.8753C96.1525 42.1714 96.2862 41.544 96.5536 40.9931C96.8254 40.4379 97.2024 40.005 97.6846 39.6946C98.1712 39.3798 98.6973 39.2224 99.2628 39.2224C100.188 39.2224 100.907 39.5263 101.42 40.134C101.933 40.7417 102.189 41.6118 102.189 42.7442V43.2492H97.369C97.3865 43.9487 97.5904 44.5149 97.9805 44.9477C98.3751 45.3762 98.8748 45.5904 99.4798 45.5904C99.9094 45.5904 100.273 45.503 100.571 45.3281C100.869 45.1532 101.13 44.9215 101.354 44.6329L102.097 45.2101C101.501 46.1238 100.606 46.5807 99.414 46.5807ZM99.2628 40.2193C98.7718 40.2193 98.3597 40.3985 98.0266 40.757C97.6934 41.1112 97.4873 41.6096 97.4084 42.2523H100.972V42.1605C100.937 41.544 100.771 41.0675 100.473 40.7308C100.175 40.3898 99.7713 40.2193 99.2628 40.2193Z" fill="black"/>
<path d="M111.336 45.7478C110.862 46.3031 110.168 46.5807 109.251 46.5807C108.493 46.5807 107.914 46.3621 107.515 45.9249C107.121 45.4833 106.921 44.8319 106.917 43.9706V39.3536H108.133V43.9378C108.133 45.0133 108.572 45.5511 109.449 45.5511C110.378 45.5511 110.996 45.2057 111.303 44.5149V39.3536H112.519V46.4496H111.362L111.336 45.7478Z" fill="black"/>
<path d="M117.813 40.4422C117.629 40.4116 117.429 40.3963 117.215 40.3963C116.417 40.3963 115.875 40.7352 115.59 41.4129V46.4496H114.374V39.3536H115.557L115.577 40.1734C115.976 39.5394 116.542 39.2224 117.274 39.2224C117.51 39.2224 117.69 39.253 117.813 39.3142V40.4422Z" fill="black"/>
<path d="M120.259 46.4496H119.043V36.3762H120.259V46.4496Z" fill="black"/>
</g>
<defs>
<filter id="filter0_d" x="123.448" y="7.83487" width="55.5517" height="55.1651" filterUnits="userSpaceOnUse" color-interpolation-filters="sRGB">
<feFlood flood-opacity="0" result="BackgroundImageFix"/>
<feColorMatrix in="SourceAlpha" type="matrix" values="0 0 0 0 0 0 0 0 0 0 0 0 0 0 0 0 0 0 127 0" result="hardAlpha"/>
<feOffset dy="2"/>
<feComposite in2="hardAlpha" operator="out"/>
<feColorMatrix type="matrix" values="0 0 0 0 0 0 0 0 0 0 0 0 0 0 0 0 0 0 0.25 0"/>
<feBlend mode="normal" in2="BackgroundImageFix" result="effect1_dropShadow"/>
<feBlend mode="normal" in="SourceGraphic" in2="effect1_dropShadow" result="shape"/>
</filter>
<filter id="filter1_d" x="1.56177" y="6.15598" width="141.97" height="27.5114" filterUnits="userSpaceOnUse" color-interpolation-filters="sRGB">
<feFlood flood-opacity="0" result="BackgroundImageFix"/>
<feColorMatrix in="SourceAlpha" type="matrix" values="0 0 0 0 0 0 0 0 0 0 0 0 0 0 0 0 0 0 127 0" result="hardAlpha"/>
<feOffset dy="2"/>
<feComposite in2="hardAlpha" operator="out"/>
<feColorMatrix type="matrix" values="0 0 0 0 0 0 0 0 0 0 0 0 0 0 0 0 0 0 0.25 0"/>
<feBlend mode="normal" in2="BackgroundImageFix" result="effect1_dropShadow"/>
<feBlend mode="normal" in="SourceGraphic" in2="effect1_dropShadow" result="shape"/>
</filter>
<filter id="filter2_f" x="18.6899" y="35.3762" width="102.569" height="12.2046" filterUnits="userSpaceOnUse" color-interpolation-filters="sRGB">
<feFlood flood-opacity="0" result="BackgroundImageFix"/>
<feBlend mode="normal" in="SourceGraphic" in2="BackgroundImageFix" result="shape"/>
<feGaussianBlur stdDeviation="0.5" result="effect1_foregroundBlur"/>
</filter>
</defs>
</svg>
