<svg width="254" height="48" viewBox="0 0 254 48" fill="none" xmlns="http://www.w3.org/2000/svg">
<g filter="url(#filter0_d)">
<path d="M20.5586 36.5918C20.5586 35.127 20.002 33.9941 18.8887 33.1934C17.7949 32.373 15.8711 31.6699 13.1172 31.084C10.3828 30.498 8.20508 29.7949 6.58398 28.9746C4.98242 28.1543 3.79102 27.1777 3.00977 26.0449C2.24805 24.9121 1.86719 23.5645 1.86719 22.002C1.86719 19.4043 2.96094 17.207 5.14844 15.4102C7.35547 13.6133 10.168 12.7148 13.5859 12.7148C17.1797 12.7148 20.0898 13.6426 22.3164 15.498C24.5625 17.3535 25.6855 19.7266 25.6855 22.6172H20.2363C20.2363 21.1328 19.6016 19.8535 18.332 18.7793C17.082 17.7051 15.5 17.168 13.5859 17.168C11.6133 17.168 10.0703 17.5977 8.95703 18.457C7.84375 19.3164 7.28711 20.4395 7.28711 21.8262C7.28711 23.1348 7.80469 24.1211 8.83984 24.7852C9.875 25.4492 11.7402 26.084 14.4355 26.6895C17.1504 27.2949 19.3477 28.0176 21.0273 28.8574C22.707 29.6973 23.9473 30.7129 24.748 31.9043C25.5684 33.0762 25.9785 34.5117 25.9785 36.2109C25.9785 39.043 24.8457 41.3184 22.5801 43.0371C20.3145 44.7363 17.375 45.5859 13.7617 45.5859C11.2227 45.5859 8.97656 45.1367 7.02344 44.2383C5.07031 43.3398 3.53711 42.0898 2.42383 40.4883C1.33008 38.8672 0.783203 37.1191 0.783203 35.2441H6.20312C6.30078 37.0605 7.02344 38.5059 8.37109 39.5801C9.73828 40.6348 11.5352 41.1621 13.7617 41.1621C15.8125 41.1621 17.4531 40.752 18.6836 39.9316C19.9336 39.0918 20.5586 37.9785 20.5586 36.5918ZM38.459 17.1387C40.8613 14.1895 43.9863 12.7148 47.834 12.7148C54.5332 12.7148 57.9121 16.4941 57.9707 24.0527V45H52.5508V24.0234C52.5312 21.7383 52.0039 20.0488 50.9688 18.9551C49.9531 17.8613 48.3613 17.3145 46.1934 17.3145C44.4355 17.3145 42.8926 17.7832 41.5645 18.7207C40.2363 19.6582 39.2012 20.8887 38.459 22.4121V45H33.0391V0H38.459V17.1387ZM64.6504 28.8574C64.6504 25.752 65.2559 22.959 66.4668 20.4785C67.6973 17.998 69.3965 16.084 71.5645 14.7363C73.752 13.3887 76.2422 12.7148 79.0352 12.7148C83.3516 12.7148 86.8379 14.209 89.4941 17.1973C92.1699 20.1855 93.5078 24.1602 93.5078 29.1211V29.502C93.5078 32.5879 92.9121 35.3613 91.7207 37.8223C90.5488 40.2637 88.8594 42.168 86.6523 43.5352C84.4648 44.9023 81.9453 45.5859 79.0938 45.5859C74.7969 45.5859 71.3105 44.0918 68.6348 41.1035C65.9785 38.1152 64.6504 34.1602 64.6504 29.2383V28.8574ZM70.0996 29.502C70.0996 33.0176 70.9102 35.8398 72.5312 37.9688C74.1719 40.0977 76.3594 41.1621 79.0938 41.1621C81.8477 41.1621 84.0352 40.0879 85.6562 37.9395C87.2773 35.7715 88.0879 32.7441 88.0879 28.8574C88.0879 25.3809 87.2578 22.5684 85.5977 20.4199C83.957 18.252 81.7695 17.168 79.0352 17.168C76.3594 17.168 74.2012 18.2324 72.5605 20.3613C70.9199 22.4902 70.0996 25.5371 70.0996 29.502ZM115.627 18.1641C114.807 18.0273 113.918 17.959 112.961 17.959C109.406 17.959 106.994 19.4727 105.725 22.5V45H100.305V13.3008H105.578L105.666 16.9629C107.443 14.1309 109.963 12.7148 113.225 12.7148C114.279 12.7148 115.08 12.8516 115.627 13.125V18.1641ZM129.455 5.625V13.3008H135.373V17.4902H129.455V37.1484C129.455 38.418 129.719 39.375 130.246 40.0195C130.773 40.6445 131.672 40.957 132.941 40.957C133.566 40.957 134.426 40.8398 135.52 40.6055V45C134.094 45.3906 132.707 45.5859 131.359 45.5859C128.938 45.5859 127.111 44.8535 125.881 43.3887C124.65 41.9238 124.035 39.8438 124.035 37.1484V17.4902H118.264V13.3008H124.035V5.625H129.455ZM154.885 45.5859C150.588 45.5859 147.092 44.1797 144.396 41.3672C141.701 38.5352 140.354 34.7559 140.354 30.0293V29.0332C140.354 25.8887 140.949 23.0859 142.141 20.625C143.352 18.1445 145.031 16.2109 147.18 14.8242C149.348 13.418 151.691 12.7148 154.211 12.7148C158.332 12.7148 161.535 14.0723 163.82 16.7871C166.105 19.502 167.248 23.3887 167.248 28.4473V30.7031H145.773C145.852 33.8281 146.76 36.3574 148.498 38.291C150.256 40.2051 152.482 41.1621 155.178 41.1621C157.092 41.1621 158.713 40.7715 160.041 39.9902C161.369 39.209 162.531 38.1738 163.527 36.8848L166.838 39.4629C164.182 43.5449 160.197 45.5859 154.885 45.5859ZM154.211 17.168C152.023 17.168 150.188 17.9688 148.703 19.5703C147.219 21.1523 146.301 23.3789 145.949 26.25H161.828V25.8398C161.672 23.0859 160.93 20.957 159.602 19.4531C158.273 17.9297 156.477 17.168 154.211 17.168ZM178.674 13.3008L178.85 17.2852C181.271 14.2383 184.436 12.7148 188.342 12.7148C195.041 12.7148 198.42 16.4941 198.479 24.0527V45H193.059V24.0234C193.039 21.7383 192.512 20.0488 191.477 18.9551C190.461 17.8613 188.869 17.3145 186.701 17.3145C184.943 17.3145 183.4 17.7832 182.072 18.7207C180.744 19.6582 179.709 20.8887 178.967 22.4121V45H173.547V13.3008H178.674ZM219.807 45.5859C215.51 45.5859 212.014 44.1797 209.318 41.3672C206.623 38.5352 205.275 34.7559 205.275 30.0293V29.0332C205.275 25.8887 205.871 23.0859 207.062 20.625C208.273 18.1445 209.953 16.2109 212.102 14.8242C214.27 13.418 216.613 12.7148 219.133 12.7148C223.254 12.7148 226.457 14.0723 228.742 16.7871C231.027 19.502 232.17 23.3887 232.17 28.4473V30.7031H210.695C210.773 33.8281 211.682 36.3574 213.42 38.291C215.178 40.2051 217.404 41.1621 220.1 41.1621C222.014 41.1621 223.635 40.7715 224.963 39.9902C226.291 39.209 227.453 38.1738 228.449 36.8848L231.76 39.4629C229.104 43.5449 225.119 45.5859 219.807 45.5859ZM219.133 17.168C216.945 17.168 215.109 17.9688 213.625 19.5703C212.141 21.1523 211.223 23.3789 210.871 26.25H226.75V25.8398C226.594 23.0859 225.852 20.957 224.523 19.4531C223.195 17.9297 221.398 17.168 219.133 17.168ZM253.791 18.1641C252.971 18.0273 252.082 17.959 251.125 17.959C247.57 17.959 245.158 19.4727 243.889 22.5V45H238.469V13.3008H243.742L243.83 16.9629C245.607 14.1309 248.127 12.7148 251.389 12.7148C252.443 12.7148 253.244 12.8516 253.791 13.125V18.1641Z" fill="black"/>
</g>
<defs>
<filter id="filter0_d" x="0.783203" y="0" width="253.008" height="47.5859" filterUnits="userSpaceOnUse" color-interpolation-filters="sRGB">
<feFlood flood-opacity="0" result="BackgroundImageFix"/>
<feColorMatrix in="SourceAlpha" type="matrix" values="0 0 0 0 0 0 0 0 0 0 0 0 0 0 0 0 0 0 127 0" result="hardAlpha"/>
<feOffset dy="2"/>
<feComposite in2="hardAlpha" operator="out"/>
<feColorMatrix type="matrix" values="0 0 0 0 0 0 0 0 0 0 0 0 0 0 0 0 0 0 0.25 0"/>
<feBlend mode="normal" in2="BackgroundImageFix" result="effect1_dropShadow"/>
<feBlend mode="normal" in="SourceGraphic" in2="effect1_dropShadow" result="shape"/>
</filter>
</defs>
</svg>
